<svg xmlns="http://www.w3.org/2000/svg" viewBox="0 0 202.0085 287.8411"><defs><style>.a{isolation:isolate;}.b{fill:#e5c671;}.c{fill:#dcd8ca;}.d{fill:#493f38;}.e{fill:#090807;mix-blend-mode:overlay;}.f,.g,.h{fill:#96c5d0;stroke:#fff;stroke-miterlimit:10;}.f{stroke-width:1.4686px;}.g{stroke-width:1.9395px;}.h{stroke-width:1.7056px;}.i{fill:#3f3a35;}.j{fill:#e1dedd;}.k{fill:#23211e;}.l{fill:#a56d38;}.m{fill:#110f0c;}.n{fill:#1b1b19;}.o{fill:#353534;}.p{fill:#4e4e4d;}.q{fill:#9a7a48;}.r{fill:#7b613c;}.s{fill:#9a9998;}.t{fill:#696968;}.u,.w{fill:#fff;}.u{opacity:0.36;}.v{fill:#c91619;fill-rule:evenodd;}</style></defs><title>Apartment</title><g class="a"><rect class="b" x="3.0086" y="39.3582" width="195.9912" height="248.388"/><rect class="c" x="3.0086" y="253.0904" width="195.9912" height="34.6558"/><rect class="d" y="31.6282" width="202.0085" height="7.7299"/><polygon class="e" points="113.19 65.372 84.102 65.372 86.445 63.284 115.533 63.284 113.19 65.372"/><polygon class="e" points="113.19 117.715 84.102 117.715 86.445 115.627 115.533 115.627 113.19 117.715"/><polygon class="e" points="113.19 178.422 84.102 178.422 86.445 176.334 115.533 176.334 113.19 178.422"/><polygon class="e" points="61.628 169.938 32.54 169.938 34.884 167.849 63.972 167.849 61.628 169.938"/><polygon class="e" points="164.766 169.938 135.678 169.938 138.022 167.849 167.11 167.849 164.766 169.938"/><polygon class="e" points="61.628 117.715 32.54 117.715 34.884 115.627 63.972 115.627 61.628 117.715"/><polygon class="e" points="164.766 117.715 135.678 117.715 138.022 115.627 167.11 115.627 164.766 117.715"/><polygon class="e" points="61.628 233.664 32.54 233.664 34.884 231.575 63.972 231.575 61.628 233.664"/><polygon class="e" points="164.766 233.664 135.678 233.664 138.022 231.575 167.11 231.575 164.766 233.664"/><rect class="f" x="88.1101" y="44.5759" width="25.7883" height="16.6193"/><rect class="f" x="139.6867" y="149.3162" width="25.7883" height="16.6193"/><rect class="f" x="36.5335" y="149.3162" width="25.7883" height="16.6193"/><rect class="g" x="88.1101" y="145.258" width="12.8942" height="28.9872"/><rect class="g" x="101.0042" y="145.258" width="12.8942" height="28.9872"/><rect class="h" x="88.1101" y="91.1215" width="12.8942" height="22.4168"/><rect class="h" x="101.0042" y="91.1215" width="12.8942" height="22.4168"/><rect class="h" x="36.5335" y="91.1215" width="12.8942" height="22.4168"/><rect class="h" x="49.4276" y="91.1215" width="12.8942" height="22.4168"/><rect class="h" x="139.6867" y="91.1215" width="12.8942" height="22.4168"/><rect class="h" x="152.5809" y="91.1215" width="12.8942" height="22.4168"/><rect class="h" x="36.5335" y="207.0702" width="12.8942" height="22.4168"/><rect class="h" x="49.4276" y="207.0702" width="12.8942" height="22.4168"/><rect class="h" x="139.6867" y="207.0702" width="12.8942" height="22.4168"/><rect class="h" x="152.5809" y="207.0702" width="12.8942" height="22.4168"/><rect class="c" x="34.8836" y="113.5382" width="29.0881" height="2.0884"/><rect class="c" x="86.4452" y="113.5382" width="29.0881" height="2.0884"/><rect class="c" x="86.4452" y="174.2452" width="29.0881" height="2.0884"/><rect class="c" x="86.4452" y="61.1952" width="29.0881" height="2.0884"/><rect class="c" x="138.0218" y="113.5382" width="29.0881" height="2.0884"/><rect class="c" x="34.8836" y="165.7609" width="29.0881" height="2.0884"/><rect class="c" x="138.0218" y="165.7609" width="29.0881" height="2.0884"/><rect class="c" x="34.8836" y="229.487" width="29.0881" height="2.0884"/><rect class="c" x="138.0218" y="229.487" width="29.0881" height="2.0884"/><path class="e" d="M74.1774,234.1852,60.0188,248.1083l.5321,1.0235s.2844,2.8569,1.0749,2.8569H64.59a9.0512,9.0512,0,0,0,1.6205-2.4446c.5212-.9594.3,38.2969.3,38.2969l12.6522-.095V236.9888"/><polygon class="i" points="123.387 287.746 78.56 287.746 78.56 235.234 97.1 214.469 106.023 214.469 123.387 234.345 123.387 287.746"/><polygon class="i" points="126.462 236.199 99.166 210.783 101.11 208.973 128.406 234.389 126.462 236.199"/><path class="j" d="M127.6275,235.1137,101.11,210.4221l-2.651,2.4685L121.008,233.887l1.29,2.8832a1.2889,1.2889,0,0,0,1.1856.7361H125.74a1.2865,1.2865,0,0,0,1.1948-.7573Z"/><path class="j" d="M127.6275,235.1137,101.11,210.4221l-2.651,2.4685L121.008,233.887l1.29,2.8832a1.2889,1.2889,0,0,0,1.1856.7361H125.74a1.2865,1.2865,0,0,0,1.1948-.7573Z"/><polygon class="i" points="75.759 236.199 103.054 210.783 101.11 208.973 73.815 234.389 75.759 236.199"/><path class="j" d="M74.5928,235.1137l26.517-24.6916,2.651,2.4685L81.2122,233.887l-1.29,2.8832a1.2889,1.2889,0,0,1-1.1856.7361H76.48a1.2865,1.2865,0,0,1-1.1948-.7573Z"/><rect class="k" x="86.1351" y="232.0907" width="29.6774" height="55.6554"/><rect class="l" x="89.1768" y="256.7768" width="1.4895" height="11.1477" rx="0.5469" ry="0.5469"/><rect class="m" x="107.2425" y="240.336" width="0.6406" height="40.26"/><rect class="m" x="102.8498" y="240.336" width="0.6406" height="40.26"/><rect class="m" x="98.4572" y="240.336" width="0.6406" height="40.26"/><rect class="m" x="94.0645" y="240.336" width="0.6406" height="40.26"/><rect class="n" x="183.5277" y="43.6579" width="2.4194" height="6.039"/><rect class="o" x="183.5277" y="39.3582" width="2.4194" height="4.2998"/><rect class="o" x="183.5277" y="49.6969" width="2.4194" height="228.7733"/><rect class="p" x="183.5277" y="278.4702" width="2.4194" height="3.414"/><rect class="n" x="183.5277" y="281.8843" width="2.4194" height="2.5122"/><rect class="n" x="182.6903" y="61.4528" width="4.0942" height="0.9662"/><rect class="n" x="182.6903" y="87.6701" width="4.0942" height="0.9662"/><rect class="n" x="182.6903" y="113.8874" width="4.0942" height="0.9662"/><rect class="n" x="182.6903" y="140.1047" width="4.0942" height="0.9662"/><rect class="n" x="182.6903" y="166.322" width="4.0942" height="0.9662"/><rect class="n" x="182.6903" y="192.5393" width="4.0942" height="0.9662"/><rect class="n" x="182.6903" y="218.7566" width="4.0942" height="0.9662"/><rect class="n" x="182.6903" y="244.9739" width="4.0942" height="0.9662"/><rect class="n" x="182.6903" y="271.1912" width="4.0942" height="0.9662"/><polygon class="e" points="173.777 286.329 178.189 286.329 182.69 281.007 182.69 55.011 178.741 55.011 178.733 281.043 173.777 286.329"/><rect class="q" x="53.501" y="3.7361" width="17.6415" height="22.5295"/><rect class="q" x="98.4217" y="11.7237" width="17.6415" height="14.5419"/><polygon class="r" points="98.422 11.724 116.063 11.724 111.639 16.233 98.422 16.233 98.422 11.724"/><polygon class="r" points="53.501 3.736 71.143 3.736 66.719 8.245 53.501 8.245 53.501 3.736"/><rect class="s" x="98.4217" y="26.2656" width="17.6415" height="5.3626"/><rect class="t" x="97.0481" y="7.9876" width="20.3888" height="3.7361"/><rect class="t" x="52.1273" width="20.3888" height="3.7361"/><rect class="s" x="53.501" y="26.2656" width="17.6415" height="5.3626"/><rect class="o" x="86.1351" y="20.903" width="8.8207" height="10.7253"/><polygon class="e" points="3.009 55.011 185.947 55.011 202.008 39.358 3.009 39.358 3.009 55.011"/><polygon class="u" points="36.533 103.393 36.533 91.121 47.457 91.121 36.533 103.393"/><polygon class="u" points="36.544 105.769 36.566 108.702 49.398 94.074 49.395 91.121 36.544 105.769"/><polygon class="u" points="139.702 103.393 139.702 91.121 150.625 91.121 139.702 103.393"/><polygon class="u" points="139.712 105.769 139.734 108.702 152.566 94.074 152.564 91.121 139.712 105.769"/><polygon class="u" points="88.125 103.393 88.125 91.121 99.049 91.121 88.125 103.393"/><polygon class="u" points="88.136 105.769 88.158 108.702 100.989 94.074 100.987 91.121 88.136 105.769"/><polygon class="u" points="88.125 56.847 88.125 44.576 99.049 44.576 88.125 56.847"/><polygon class="u" points="88.136 59.223 88.11 61.195 89.069 61.244 103.938 44.58 100.987 44.576 88.136 59.223"/><polygon class="u" points="36.559 161.563 36.559 149.292 47.483 149.292 36.559 161.563"/><polygon class="u" points="36.57 163.939 36.544 165.911 37.503 165.96 52.372 149.296 49.421 149.292 36.57 163.939"/><polygon class="u" points="139.702 161.563 139.702 149.292 150.625 149.292 139.702 161.563"/><polygon class="u" points="139.712 163.939 139.687 165.911 140.646 165.96 155.514 149.296 152.564 149.292 139.712 163.939"/><polygon class="u" points="88.273 157.529 88.273 145.258 99.197 145.258 88.273 157.529"/><polygon class="u" points="88.284 159.905 88.306 162.838 101.137 148.21 101.135 145.258 88.284 159.905"/><polygon class="u" points="36.548 219.341 36.548 207.07 47.472 207.07 36.548 219.341"/><polygon class="u" points="36.559 221.718 36.581 224.65 49.413 210.023 49.41 207.07 36.559 221.718"/><polygon class="u" points="139.702 219.341 139.702 207.07 150.625 207.07 139.702 219.341"/><polygon class="u" points="139.712 221.718 139.734 224.65 152.566 210.023 152.564 207.07 139.712 221.718"/><path class="v" d="M41.9953,265.242a9.9175,9.9175,0,1,1-9.927,9.9188,9.9213,9.9213,0,0,1,9.927-9.9188Z"/><path class="w" d="M42.1406,276.0245l-4.2679.4252,7.68-8.401-3.4122,7.9758Zm-4.2679,6.06,3.4147-7.9734,4.2653-.4252-7.68,8.3986Z"/></g></svg>