<svg xmlns="http://www.w3.org/2000/svg" xmlns:xlink="http://www.w3.org/1999/xlink" viewBox="0 0 230.8141 241.0801"><defs><style>.a,.c,.v{fill:#7ed8e3;}.b{fill:none;}.b,.c{clip-rule:evenodd;}.d{fill:#65492e;}.ac,.d,.e,.f,.g,.k,.n,.p,.q,.t,.u,.v{fill-rule:evenodd;}.e{fill:#503a24;}.f{fill:#251505;}.g{fill:#331d07;}.h{clip-path:url(#a);}.i{fill:#a5e9f1;}.j{fill:#733e00;}.k,.x{fill:#a45a03;}.l{clip-path:url(#b);}.m{clip-path:url(#c);}.n{fill:#4a3522;}.o{clip-path:url(#d);}.p{fill:#3a2a1a;}.q{fill:#462809;}.r{clip-path:url(#e);}.s,.t{fill:#301b05;}.u{fill:#372212;}.w{clip-path:url(#f);}.y{fill:#765432;}.z{fill:#442a0f;}.aa{fill:url(#g);}.ab{fill:url(#h);}.ac{fill:#c91619;}.ad{fill:#fff;}</style><clipPath id="a"><rect class="a" x="28.0961" y="149.0386" width="23.2634" height="40.001"/></clipPath><clipPath id="b"><rect class="a" x="78.8235" y="149.0386" width="23.2634" height="40.001"/></clipPath><clipPath id="c"><polygon class="b" points="16.517 90.836 66.133 2.123 115.749 90.836 115.749 240.806 16.517 240.806 16.517 90.836 16.517 90.836"/></clipPath><clipPath id="d"><polygon class="b" points="115.326 104.775 229.767 104.775 229.767 241.08 115.326 241.08 115.326 104.775 115.326 104.775"/></clipPath><clipPath id="e"><rect class="a" x="161.2986" y="109.8362" width="21.1267" height="14.3561"/></clipPath><clipPath id="f"><polygon class="c" points="66.133 27.469 79.854 59.153 51.352 59.153 66.133 27.469 66.133 27.469"/></clipPath><linearGradient id="g" x1="183.8394" y1="221.3301" x2="183.8394" y2="213.7991" gradientUnits="userSpaceOnUse"><stop offset="0" stop-color="#ffc800"/><stop offset="0.095" stop-color="#fdc600" stop-opacity="0.9773"/><stop offset="0.2196" stop-color="#f6c000" stop-opacity="0.9128"/><stop offset="0.3605" stop-color="#eab700" stop-opacity="0.8064"/><stop offset="0.5134" stop-color="#daaa00" stop-opacity="0.6579"/><stop offset="0.6761" stop-color="#c69900" stop-opacity="0.4673"/><stop offset="0.8443" stop-color="#ae8500" stop-opacity="0.2384"/><stop offset="1" stop-color="#947000" stop-opacity="0"/></linearGradient><linearGradient id="h" x1="159.5576" y1="221.3301" x2="159.5576" y2="213.7991" xlink:href="#g"/></defs><title>Brown</title><polygon class="d" points="16.517 90.836 66.133 2.123 115.749 90.836 115.749 240.806 16.517 240.806 16.517 90.836 16.517 90.836"/><polygon class="e" points="115.326 104.775 229.767 104.775 229.767 241.08 115.326 241.08 115.326 104.775 115.326 104.775"/><polygon class="f" points="115.302 220.26 229.767 220.26 229.767 241.08 115.302 241.08 115.302 220.26 115.302 220.26"/><polygon class="g" points="16.52 216.506 115.741 216.506 115.741 241.08 16.52 241.08 16.52 216.506 16.52 216.506"/><rect class="a" x="28.0961" y="149.0386" width="23.2634" height="40.001"/><g class="h"><path class="i" d="M24.7541,170.2784l-2.8658-2.4138,27.4046-24.7594,3.065,2.2469L24.7541,170.2784ZM21.31,165.5639l-8.0137-6.5123L40.9,134.1254l7.8146,6.6815L21.31,165.5639Z"/></g><rect class="j" x="38.7196" y="148.5801" width="1.875" height="40.875"/><rect class="j" x="27.5946" y="168.2332" width="24.25" height="1.8056"/><path class="k" d="M52.374,190.0541H27.0817v-42.03H52.374ZM51.36,149.0386H28.0961V189.04H51.36Z"/><rect class="a" x="78.8235" y="149.0386" width="23.2634" height="40.001"/><g class="l"><path class="i" d="M75.4815,170.2784l-2.8658-2.4138L100.02,143.1051l3.065,2.2469L75.4815,170.2784Zm-3.4444-4.7145-8.0137-6.5123,27.6038-24.9261,7.8146,6.6815-27.4047,24.757Z"/></g><rect class="j" x="89.4469" y="148.5801" width="1.875" height="40.875"/><rect class="j" x="78.3219" y="168.2332" width="24.25" height="1.8056"/><path class="k" d="M103.1014,190.0541H77.8091v-42.03h25.2923Zm-1.0144-41.0155H78.8235V189.04h23.2634Z"/><g class="m"><polygon class="n" points="12.292 102.453 119.971 102.453 107.679 113.015 0 113.015 12.292 102.453 12.292 102.453"/></g><g class="o"><polygon class="p" points="115.337 161.823 230.814 161.823 215.952 174.503 100.475 174.503 115.337 161.823 115.337 161.823"/></g><polygon class="d" points="133.692 77.103 144.254 77.103 144.254 105.624 133.692 105.624 133.692 77.103 133.692 77.103"/><polygon class="q" points="115.326 104.775 229.767 104.775 229.767 158.651 115.326 158.651 115.326 104.775 115.326 104.775"/><polygon class="g" points="150.581 109.183 171.651 95.968 152.989 128.706 141.55 120.294 137.938 121.497 137.637 118.792 150.581 109.183 150.581 109.183"/><polygon class="g" points="133.348 104.764 143.942 104.764 115.337 112.162 115.337 104.764 133.348 104.764 133.348 104.764"/><polygon class="d" points="171.696 85.556 190.458 108.766 190.458 128.493 153.266 128.493 153.266 108.696 171.696 85.556 171.696 85.556"/><rect class="a" x="161.2986" y="109.8362" width="21.1267" height="14.3561"/><g class="r"><path class="i" d="M160.0747,121.2526l-1.6818-1.56,16.082-15.9992,1.7987,1.4519-16.1989,16.1071Zm-2.0213-3.0465-4.7027-4.2081L169.55,97.8911l4.5859,4.3175-16.082,15.9976Z"/></g><rect class="j" x="171.2499" y="109.2119" width="1.0827" height="15.625"/><rect class="j" x="160.7691" y="116.483" width="22.0442" height="1.0623"/><path class="k" d="M183.3206,125.2594H160.4033V108.8588h22.9173Zm-1.0144-15.3861H161.4178v14.3717h20.8884Z"/><path class="s" d="M15.9466,96.129,12.3,94.0571,64.5884,0l3.434,2.0674L15.9466,96.129Zm100.0712-.0323L63.45,2.1036,66.9159.0323l52.7832,93.9951-3.6813,2.0694Z"/><polygon class="q" points="12.298 102.455 119.957 102.455 119.957 104.623 12.298 104.623 12.298 102.455 12.298 102.455"/><polygon class="g" points="12.298 104.576 119.957 104.576 119.957 106.672 12.298 106.672 12.298 104.576 12.298 104.576"/><polygon class="q" points="15.318 214.407 116.528 214.407 116.528 216.506 15.318 216.506 15.318 214.407 15.318 214.407"/><polygon class="t" points="192.817 108.41 190.117 110.92 171.847 87.74 153.817 110.56 151.147 108.09 171.467 82.36 171.887 82.75 172.287 82.38 192.817 108.41"/><polygon class="t" points="115.326 158.651 229.767 158.651 229.767 161.821 115.326 161.821 115.326 158.651 115.326 158.651"/><polygon class="u" points="115.302 218.457 230.315 218.457 230.315 220.26 115.302 220.26 115.302 218.457 115.302 218.457"/><polygon class="v" points="66.133 27.469 79.854 59.153 51.352 59.153 66.133 27.469 66.133 27.469"/><g class="w"><polygon class="i" points="48.391 58.574 39.53 48.924 68.932 22.744 77.796 32.394 48.391 58.574 48.391 58.574"/><polygon class="i" points="52.907 63.741 49.742 60.232 77.182 36.801 80.349 40.31 52.907 63.741 52.907 63.741"/></g><rect class="j" x="54.8654" y="52.5409" width="21.9167" height="2.1124"/><rect class="j" x="62.5321" y="35.9188" width="7" height="2.1124"/><rect class="j" x="59.9487" y="41.1985" width="11.75" height="2.1124"/><rect class="j" x="57.5321" y="46.4809" width="16.4167" height="2.1097"/><path class="x" d="M77.4781,57.5918,66.0791,31.2743,53.8029,57.5918Zm2.376,1.5607H51.3515L66.1329,27.4693,79.8541,59.1525Z"/><path class="y" d="M172.4461,240.33v-53.7a29.8863,29.8863,0,0,1,13.1064,3.2549c7.1191,3.834,10.7295,10.5479,10.7295,19.9541V240.33Z"/><path class="z" d="M173.1964,187.4c5.48.2254,22.3354,2.5418,22.3354,22.4381V239.58H173.1964V187.4m-1.0232-1.522c-.3086,0-.4768.0074-.4768.0074V241.08h25.3354V209.8385c0-23.0238-21.3774-23.96-24.8586-23.96Z"/><path class="y" d="M147.1112,240.33V209.8389c0-21.63,19.252-23.1543,23.835-23.209v53.7Z"/><path class="z" d="M170.1964,187.4v52.18H147.8612V209.8385c0-19.8957,16.855-22.2125,22.3352-22.4381m1.0227-1.522c-3.4854,0-24.8579.9395-24.8579,23.96V241.08h25.3352V185.8857s-.1677-.0074-.4773-.0074Z"/><path class="aa" d="M187.6049,217.5646a3.7655,3.7655,0,1,1-3.7655-3.7655A3.7655,3.7655,0,0,1,187.6049,217.5646Zm-3.7655-2.0731a2.0731,2.0731,0,1,0,2.0731,2.0731A2.0731,2.0731,0,0,0,183.8394,215.4915Z"/><path class="ab" d="M163.3231,217.5646a3.7655,3.7655,0,1,1-3.7655-3.7655A3.7655,3.7655,0,0,1,163.3231,217.5646Zm-3.7655-2.0731a2.0731,2.0731,0,1,0,2.0731,2.0731A2.0731,2.0731,0,0,0,159.5576,215.4915Z"/><path class="ac" d="M71.6508,218.8174a9.9175,9.9175,0,1,1-9.927,9.9188,9.9213,9.9213,0,0,1,9.927-9.9188Z"/><path class="ad" d="M71.7961,229.6l-4.2679.4252,7.68-8.401L71.7961,229.6Zm-4.2679,6.06,3.4147-7.9734,4.2653-.4252-7.68,8.3986Z"/></svg>