<svg xmlns="http://www.w3.org/2000/svg" viewBox="0 0 769.0669 244.1971"><defs><style>.a{fill:#1b7a9c;}</style></defs><title>City skyline</title><path class="a" d="M69.48,127.5882a65.3909,65.3909,0,0,1-37.4533,11.1686c-22.2261-.3384.8258,1.3077.8258,1.3077S47.2565,141.8028,70.72,129.28c23.4662-12.5223-1.24-1.6922-1.24-1.6922"/><rect class="a" x="6.4981" y="136.8759" width="28.0013" height="18.4789"/><rect class="a" y="149.3657" width="129.4337" height="94.8314"/><rect class="a" x="124.9473" y="156.8575" width="37.9732" height="87.3396"/><rect class="a" x="147.9315" y="144.8577" width="5.9918" height="14.4988"/><rect class="a" x="66.9709" y="117.3816" width="62.4628" height="126.8155"/><rect class="a" x="60.9791" y="114.3979" width="74.9527" height="6.4981"/><rect class="a" x="206.3953" y="75.9374" width="8.0008" height="24.9553"/><rect class="a" x="198.9009" y="84.4255" width="22.987" height="35.1519"/><rect class="a" x="191.9181" y="104.4071" width="36.9768" height="42.9225"/><rect class="a" x="187.4074" y="118.378" width="45.9739" height="125.8191"/><rect class="a" x="238.3767" y="50.4514" width="74.9716" height="24.977"/><rect class="a" x="242.8847" y="60.9512" width="65.9555" height="183.2459"/><polygon class="a" points="299.205 58.659 252.072 58.659 269.371 0 281.909 0 299.205 58.659"/><rect class="a" x="362.3276" y="96.4064" width="8.9971" height="8.4881"/><rect class="a" x="358.8132" y="99.8991" width="60.9818" height="74.0565"/><rect class="a" x="354.8142" y="138.3596" width="68.4735" height="105.8375"/><rect class="a" x="376.8075" y="94.4163" width="1.5027" height="7.9791"/><rect class="a" x="382.3092" y="92.9109" width="0.9964" height="9.4845"/><rect class="a" x="388.301" y="86.4128" width="1.5027" height="9.4168"/><rect class="a" x="391.3064" y="76.4248" width="9.5034" height="8.0684"/><rect class="a" x="391.3063" y="79.4301" width="16.4889" height="26.301"/><polygon class="a" points="374.472 114.868 394.107 114.868 394.107 88.862 374.472 99.901 374.472 114.868"/><rect class="a" x="413.2969" y="117.3816" width="51.4675" height="4.9954"/><rect class="a" x="413.2969" y="126.3788" width="51.4675" height="3.9909"/><rect class="a" x="448.7737" y="75.9374" width="31.9814" height="168.2597"/><rect class="a" x="541.7369" y="89.4209" width="34.9678" height="17.071"/><rect class="a" x="539.7253" y="100.8927" width="38.9885" height="143.3044"/><rect class="a" x="560.5597" y="159.3565" width="105.1092" height="84.8406"/><rect class="a" x="587.7108" y="150.3594" width="7.9791" height="14.9862"/><rect class="a" x="605.1961" y="154.8485" width="7.0044" height="8.0008"/><rect class="a" x="642.6819" y="150.3594" width="18.4789" height="17.9537"/><path class="a" d="M576.7047,111.7378s26.0925,46.3394,66.4727,39.1185c1.5406.7337,0,.7662,0,.7662s-34.48,12.2353-66.4727-38.0246Z"/><rect class="a" x="712.0868" y="57.4368" width="56.9801" height="3.0054"/><rect class="a" x="712.0868" y="94.9037" width="56.9801" height="3.0054"/><rect class="a" x="712.0868" y="128.3688" width="56.9801" height="3.0054"/><rect class="a" x="712.0868" y="162.8384" width="56.9801" height="3.0054"/><rect class="a" x="712.0868" y="200.2728" width="56.9801" height="3.0054"/><rect class="a" x="712.0868" y="233.2722" width="56.9801" height="3.0054"/><rect class="a" x="713.5895" y="57.4368" width="53.9747" height="186.7603"/><rect class="a" x="722.5866" y="48.4613" width="11.0061" height="13.9709"/><rect class="a" x="756.5824" y="24.4807" width="1.0072" height="37.0553"/><rect class="a" x="749.8352" y="28.4798" width="14.4989" height="0.9964"/><rect class="a" x="754.3217" y="30.4698" width="5.5234" height="0.9964"/></svg>