<?xml version="1.0" encoding="utf-8"?>
<!-- Generator: Adobe Illustrator 21.0.2, SVG Export Plug-In . SVG Version: 6.00 Build 0)  -->
<svg version="1.1" id="Layer_1" xmlns="http://www.w3.org/2000/svg" xmlns:xlink="http://www.w3.org/1999/xlink" x="0px" y="0px"
	 viewBox="0 0 512 512" style="enable-background:new 0 0 512 512;" xml:space="preserve">
<style type="text/css">
	.st0{fill:#1B7A9C;}
</style>
<path class="st0" d="M256,0C114.6,0,0,114.6,0,256s114.6,256,256,256s256-114.6,256-256S397.4,0,256,0z M345.5,131.3
	c-13.7,0-27.5,0-41.2,0c-8.7-0.5-17.6,6.1-19.2,14.7c-0.2,15-0.1,30-0.1,45c20.1,0.1,40.3,0,60.4,0.1c-1.5,21.7-4.2,43.3-7.3,64.8
	c-17.8,0.2-35.6,0-53.4,0.1c-0.2,64,0.1,128-0.1,192c-26.4,0.1-52.9,0-79.3,0.1c-0.5-64,0-128-0.3-192.1
	c-12.9-0.1-25.8,0.1-38.7-0.1c0-21.5,0-43,0-64.5c12.9-0.2,25.8,0,38.7-0.1c0.4-20.9-0.4-41.9,0.4-62.8c1.3-16.5,7.6-33.2,20-44.7
	c15-14.3,36.3-19.1,56.4-19.7c21.3-0.2,42.5-0.1,63.7-0.1C345.6,86.5,345.6,108.9,345.5,131.3z"/>
</svg>
