<?xml version="1.0" encoding="utf-8"?>
<!-- Generator: Adobe Illustrator 21.0.2, SVG Export Plug-In . SVG Version: 6.00 Build 0)  -->
<svg version="1.1" id="Layer_1" xmlns="http://www.w3.org/2000/svg" xmlns:xlink="http://www.w3.org/1999/xlink" x="0px" y="0px"
	 viewBox="0 0 56.7 56.7" style="enable-background:new 0 0 56.7 56.7;" xml:space="preserve">
<style type="text/css">
	.st0{fill:#1B7A9C;}
</style>
<g>
	<polygon class="st0" points="40,22.1 40,17.6 40,16.9 39.4,16.9 34.8,16.9 34.8,22.2 	"/>
	<path class="st0" d="M28.2,34.2c3,0,5.4-2.4,5.4-5.4c0-1.2-0.4-2.3-1-3.2c-1-1.4-2.6-2.3-4.4-2.3c-1.8,0-3.4,0.9-4.4,2.3
		c-0.6,0.9-1,2-1,3.2C22.8,31.8,25.2,34.2,28.2,34.2z"/>
	<path class="st0" d="M28.3,0C12.7,0,0,12.7,0,28.3s12.7,28.3,28.3,28.3C44,56.7,56.7,44,56.7,28.3S44,0,28.3,0z M43.6,25.6v12.6
		c0,3.3-2.7,6-6,6H18.8c-3.3,0-6-2.7-6-6V25.6v-6.3c0-3.3,2.7-6,6-6h18.9c3.3,0,6,2.7,6,6C43.6,19.3,43.6,25.6,43.6,25.6z"/>
	<path class="st0" d="M36.6,28.8c0,4.6-3.8,8.4-8.4,8.4s-8.4-3.8-8.4-8.4c0-1.1,0.2-2.2,0.6-3.2h-4.6v12.6c0,1.6,1.3,3,3,3h18.9
		c1.6,0,3-1.3,3-3V25.6H36C36.4,26.6,36.6,27.7,36.6,28.8z"/>
</g>
</svg>
