<svg xmlns="http://www.w3.org/2000/svg" xmlns:xlink="http://www.w3.org/1999/xlink" viewBox="0 0 255.9978 201.594"><defs><style>.a,.c{fill:#7ed8e3;}.a{clip-rule:evenodd;}.b{fill:#c95430;}.b,.c,.h,.j,.k,.l,.m,.n{fill-rule:evenodd;}.d{clip-path:url(#a);}.e{fill:#a5e9f1;}.f{clip-path:url(#b);}.g{clip-path:url(#c);}.h{opacity:0.25;}.i,.j{fill:#4e4e4e;}.k{fill:#c7c7c7;}.l{fill:#919191;}.m{fill:#535353;}.n{fill:#c91619;}.o{fill:#fff;}</style><clipPath id="a"><polygon class="a" points="161.204 40.012 239.016 70.789 161.204 70.789 161.204 40.012 161.204 40.012"/></clipPath><clipPath id="b"><path class="a" d="M223.13,89.8046a12.04,12.04,0,1,1-11.9925,12.04,12.0127,12.0127,0,0,1,11.9925-12.04Z"/></clipPath><clipPath id="c"><polygon class="a" points="18.86 129.403 95.593 129.403 95.593 164.93 18.86 164.93 18.86 129.403 18.86 129.403"/></clipPath></defs><title>Orange</title><polygon class="b" points="6.457 75.563 156.816 75.563 156.816 201.594 6.457 201.594 6.457 75.563 6.457 75.563"/><polygon class="b" points="152.822 7.696 247.397 44.628 247.397 201.591 152.822 201.591 152.822 7.696 152.822 7.696"/><polygon class="c" points="161.204 40.012 239.016 70.789 161.204 70.789 161.204 40.012 161.204 40.012"/><g class="d"><path class="e" d="M155.1654,67.6786l-8.3111-11.5857,27.5692-31.4388L182.7344,36.24l-27.569,31.4388Zm4.233,6.2031L156.43,69.669l25.73-28.134,2.9688,4.2129-25.73,28.1338Z"/></g><path class="c" d="M223.13,89.8046a12.04,12.04,0,1,1-11.9925,12.04,12.0127,12.0127,0,0,1,11.9925-12.04Z"/><g class="f"><path class="e" d="M203.398,116.1062l-8.3111-11.5891,27.5689-31.4388,8.3111,11.5857L203.398,116.1062Zm4.2328,6.2-2.9689-4.2127,25.7334-28.134,2.9689,4.2129-25.7334,28.1338Z"/></g><polygon class="c" points="18.86 129.403 95.593 129.403 95.593 164.93 18.86 164.93 18.86 129.403 18.86 129.403"/><g class="g"><polygon class="e" points="12.548 163.763 0 144.931 41.629 93.844 54.177 112.673 12.548 163.763 12.548 163.763"/><polygon class="e" points="18.94 173.84 14.46 166.99 53.311 121.276 57.795 128.122 18.94 173.84 18.94 173.84"/></g><polygon class="h" points="152.816 201.594 152.816 78.431 64.229 136.107 64.229 201.594 152.816 201.594 152.816 201.594"/><polygon class="h" points="152.822 27.01 235.425 58.477 247.397 52.139 247.397 43.748 152.822 5.498 152.822 27.01"/><rect class="i" x="3.6895" y="70.7462" width="149.1269" height="7.6847"/><polygon class="j" points="147.944 0 255.998 41.165 254.3 48.542 146.246 7.376 147.944 0 147.944 0"/><polygon class="k" points="161.204 113.877 197.107 113.877 197.107 201.591 161.204 201.591 161.204 113.877 161.204 113.877"/><polygon class="l" points="193.523 160.042 188.736 163.118 182.751 163.118 182.751 161.578 188.736 161.578 191.129 160.042 193.523 160.042 193.523 160.042"/><polygon class="m" points="187.526 156.972 193.537 156.972 193.537 160.045 187.526 160.045 187.526 156.972 187.526 156.972"/><path class="n" d="M221.3682,169.93a12.391,12.391,0,1,1-12.4028,12.3925A12.3957,12.3957,0,0,1,221.3682,169.93Z"/><path class="o" d="M221.55,183.4016l-5.3323.5313,9.5955-10.4963-4.2632,9.965Zm-5.3323,7.5717,4.2664-9.9619,5.3291-.5313-9.5955,10.4932Z"/></svg>