<svg xmlns="http://www.w3.org/2000/svg" xmlns:xlink="http://www.w3.org/1999/xlink" viewBox="0 0 272.8362 144.8864"><defs><style>.a{fill:none;}.b{fill:#fff;}.c{clip-path:url(#a);}.d{fill:#dadada;}.d,.h,.i,.n{fill-rule:evenodd;}.e{fill:#a90f11;}.f{fill:#a45a03;}.g{fill:#733e00;}.h{fill:#512c01;}.i{fill:#f7c600;}.j{fill:#7ed8e3;}.k{clip-path:url(#b);}.l{fill:#a5e9f1;}.m{clip-path:url(#c);}.n{fill:#8a0b0d;}.o{fill:#cd181c;}.p{clip-path:url(#d);}</style><clipPath id="a"><rect class="a" x="19" y="50.8864" width="235" height="94"/></clipPath><clipPath id="b"><rect class="a" x="52" y="83.8864" width="42" height="28"/></clipPath><clipPath id="c"><rect class="a" x="178" y="83.8864" width="42" height="28"/></clipPath><clipPath id="d"><rect class="a" x="126" y="15.8864" width="20" height="14"/></clipPath></defs><title>Ownit</title><rect class="b" x="19" y="50.8864" width="235" height="94"/><g class="c"><polygon class="d" points="19 55.886 272.836 55.886 250.146 72.886 19 72.886 19 55.886 19 55.886"/></g><polygon class="e" points="40 6.886 231 6.886 272 56.886 0 56.886 40 6.886"/><rect class="f" x="121" y="82.8864" width="30" height="62"/><rect class="g" x="124" y="86.8864" width="10" height="13"/><rect class="g" x="138" y="86.8864" width="10" height="13"/><rect class="g" x="124" y="101.8864" width="10" height="18"/><rect class="g" x="138" y="101.8864" width="10" height="18"/><rect class="g" x="124" y="121.8864" width="10" height="18"/><rect class="g" x="138" y="121.8864" width="10" height="18"/><path class="h" d="M149.0408,112.7618l.6846.7588s-2.0388,1.9344-2.3808,2.3392c-.6458.7648-.5655,1.83-1.0626,2.4137a1.5128,1.5128,0,0,1-2.1457.1219,1.486,1.486,0,0,1,.1755-2.1963c.6191-.3333,1.4821-.2767,2.4256-1.1725.3689-.3512,2.3033-2.2648,2.3033-2.2648Z"/><path class="i" d="M148.9368,112.4256a1.439,1.439,0,1,1-1.4255,1.4373,1.43,1.43,0,0,1,1.4255-1.4373Z"/><rect class="f" x="51" y="82.8864" width="44" height="30"/><rect class="j" x="52" y="83.8864" width="42" height="28"/><g class="k"><path class="l" d="M46.9675,113.3868l-2.4908-3.7559L71.925,76.0519l2.6784,3.5118L46.9675,113.3868Zm-5.0384-4.464-7.4074-9.574L62.1546,65.5255l7.22,9.8181L41.9291,108.9227Z"/></g><rect class="g" x="52" y="96.8864" width="42" height="2"/><rect class="g" x="72" y="83.8864" width="2" height="28"/><rect class="f" x="177" y="82.8864" width="44" height="30"/><rect class="j" x="178" y="83.8864" width="42" height="28"/><g class="m"><path class="l" d="M172.9675,113.3868l-2.4908-3.7559,27.4483-33.579,2.6784,3.5118-27.6359,33.8231Zm-5.0384-4.464-7.4074-9.574,27.6329-33.8232,7.22,9.8181-27.4454,33.5792Z"/></g><rect class="g" x="178" y="96.8864" width="42" height="2"/><rect class="g" x="198" y="83.8864" width="2" height="28"/><polygon class="n" points="136 0.886 120 33.886 111 25.886 108 27.886 108 24.886 118.405 13.834 136 0.886"/><polygon class="b" points="136 0.886 120 13.155 120 33.886 152 33.886 152 13.155 136 0.886"/><polygon class="o" points="154 15.955 154 13.802 136 0 118 13.802 118 15.955 136 3.375 154 15.955"/><rect class="f" x="125" y="14.8864" width="22" height="16"/><rect class="j" x="126" y="15.8864" width="20" height="14"/><g class="p"><path class="l" d="M123.7276,30.5033l-1.1743-1.7706,12.94-15.83,1.2627,1.6556L123.7276,30.5033Zm-2.3753-2.1045L117.86,23.8853,130.8872,7.94l3.4037,4.6285-12.9385,15.83Z"/></g><rect class="g" x="126" y="21.8864" width="20" height="2"/><rect class="g" x="135" y="15.8864" width="2" height="14"/></svg>