<svg xmlns="http://www.w3.org/2000/svg" xmlns:xlink="http://www.w3.org/1999/xlink" viewBox="0 0 257.972 175.0205"><defs><style>.a{fill:none;}.a,.b{clip-rule:evenodd;}.b,.c,.k{fill:#7ed8e3;}.d{fill:#a90f11;}.d,.e,.g,.i,.j,.k,.n,.o,.q,.r{fill-rule:evenodd;}.e,.w{fill:#cd181c;}.f{clip-path:url(#a);}.g{fill:#7b0b0c;}.h{clip-path:url(#b);}.i{fill:#961214;}.j{fill:#fff;}.l{clip-path:url(#c);}.m,.q{fill:#a5e9f1;}.n{fill:url(#d);}.o{fill:url(#e);}.p{clip-path:url(#f);}.r{fill:url(#g);}.s{clip-path:url(#h);}.t{fill:#b9b9b9;}.u{fill:#6f6f6f;}.v{fill:#3be11a;}</style><clipPath id="a"><polygon class="a" points="249.528 64.527 138.968 34.474 138.968 175.02 249.528 175.02 249.528 64.527 249.528 64.527"/></clipPath><clipPath id="b"><polygon class="a" points="28.408 37.126 138.968 7.072 138.968 175.02 28.408 175.02 28.408 37.126 28.408 37.126"/></clipPath><clipPath id="c"><path class="b" d="M221.4956,88.7727A14.7669,14.7669,0,1,1,206.54,103.54a14.8643,14.8643,0,0,1,14.956-14.7671Z"/></clipPath><linearGradient id="d" x1="233.4641" y1="91.5715" x2="209.5289" y2="115.5067" gradientUnits="userSpaceOnUse"><stop offset="0" stop-color="#940c00"/><stop offset="1" stop-color="#ff1d25"/></linearGradient><linearGradient id="e" x1="79.0539" y1="91.1412" x2="31.5066" y2="138.6884" xlink:href="#d"/><clipPath id="f"><rect class="c" x="38.3879" y="87.5117" width="33.7848" height="54.8062"/></clipPath><linearGradient id="g" x1="50.3283" y1="66.1612" x2="84.0207" y2="66.1612" gradientTransform="translate(170.1951 59.6345) rotate(90)" xlink:href="#d"/><clipPath id="h"><rect class="c" x="89.0724" y="104.521" width="29.923" height="44.5759" transform="translate(230.8429 22.7752) rotate(90)"/></clipPath></defs><title>Red</title><polygon class="d" points="249.528 64.527 138.968 34.474 138.968 175.02 249.528 175.02 249.528 64.527 249.528 64.527"/><polygon class="e" points="28.408 37.126 138.968 7.072 138.968 175.02 28.408 175.02 28.408 37.126 28.408 37.126"/><g class="f"><polygon class="g" points="257.972 72.483 138.968 39.778 122.845 54.806 241.849 87.512 257.972 72.483 257.972 72.483"/></g><g class="h"><polygon class="i" points="19.961 41.546 145.11 7.072 125.147 24.753 0 59.226 19.961 41.546 19.961 41.546"/></g><polygon class="j" points="245.687 58.342 138.968 28.289 138.968 40.662 257.972 73.367 245.687 58.342 245.687 58.342"/><polygon class="j" points="31.477 25.637 128.985 0 145.11 7.072 19.961 41.546 31.477 25.637 31.477 25.637"/><path class="k" d="M221.4956,88.7727A14.7669,14.7669,0,1,1,206.54,103.54a14.8643,14.8643,0,0,1,14.956-14.7671Z"/><g class="l"><path class="m" d="M201.9887,115.332l-8.8572-11.1048,29.3764-30.1259,8.8543,11.1018L201.9887,115.332Zm4.5107,5.941-3.164-4.0369,27.417-26.9588,3.1609,4.0369L206.4993,121.273Z"/></g><path class="n" d="M236.2252,103.5384a14.728,14.728,0,1,1-14.728-14.728A14.728,14.728,0,0,1,236.2252,103.5384Zm-31.7545.0013a17.0275,17.0275,0,1,0,17.025-16.8388,16.9486,16.9486,0,0,0-17.025,16.8388"/><path class="o" d="M38.3879,144.6164a2.2963,2.2963,0,0,1-2.2984-2.2985V87.5117a2.2963,2.2963,0,0,1,2.2984-2.2985H72.1727a2.2963,2.2963,0,0,1,2.2984,2.2985v54.8062a2.2963,2.2963,0,0,1-2.2984,2.2985H38.3879M72.1727,87.5117H38.3879v54.8062H72.1727Z"/><rect class="c" x="38.3879" y="87.5117" width="33.7848" height="54.8062"/><g class="p"><polygon class="q" points="23.385 116.973 17.029 109.297 50.043 73.056 56.402 80.734 23.385 116.973 23.385 116.973"/><polygon class="q" points="35.612 114.019 33.255 111.084 58.547 82.198 60.904 85.133 35.612 114.019 35.612 114.019"/></g><path class="r" d="M79.8544,111.8339a1.8693,1.8693,0,0,1,1.8712-1.8711h44.6165a1.8693,1.8693,0,0,1,1.8712,1.8711v29.95a1.8694,1.8694,0,0,1-1.8712,1.8711H81.7256a1.8694,1.8694,0,0,1-1.8712-1.8711v-29.95m46.4877,29.95v-29.95H81.7256v29.95Z"/><rect class="c" x="89.0724" y="104.521" width="29.923" height="44.5759" transform="translate(230.8429 22.7752) rotate(90)"/><g class="s"><polygon class="q" points="69.874 134.781 64.7 128.532 91.576 99.028 96.752 105.279 69.874 134.781 69.874 134.781"/><polygon class="q" points="79.828 132.376 77.91 129.986 98.499 106.471 100.418 108.86 79.828 132.376 79.828 132.376"/></g><polygon class="j" points="161.236 107.844 194.246 107.844 194.246 175.02 161.236 175.02 161.236 107.844 161.236 107.844"/><rect class="t" x="195.0146" y="140.5499" width="3.8441" height="6.182"/><rect class="u" x="195.6137" y="141.4276" width="2.6459" height="4.4265"/><rect class="v" x="197.5302" y="141.4276" width="0.7294" height="0.8903"/><path class="j" d="M92.9868,147.1557a11.2347,11.2347,0,1,1-11.2454,11.2361,11.2389,11.2389,0,0,1,11.2454-11.2361Z"/><path class="w" d="M93.1514,159.37l-4.8347.4817,8.7-9.5168L93.1514,159.37Zm-4.8347,6.8651,3.8683-9.0323,4.8318-.4817-8.7,9.514Z"/></svg>