<?xml version="1.0" encoding="utf-8"?>
<!-- Generator: Adobe Illustrator 21.0.2, SVG Export Plug-In . SVG Version: 6.00 Build 0)  -->
<svg version="1.1" id="Layer_1" xmlns="http://www.w3.org/2000/svg" xmlns:xlink="http://www.w3.org/1999/xlink" x="0px" y="0px"
	 viewBox="0 0 389.5 370.6" style="enable-background:new 0 0 389.5 370.6;" xml:space="preserve">
<style type="text/css">
	.st0{display:none;fill:#F7C600;}
	.st1{fill:#F7C600;}
</style>
<title>speech-bubble</title>
<path class="st0" d="M372.5,370.6c-41.9-39.5-151.5-38.1-161.7-37.4c-5.3,0.4-10.7,0.6-16.1,0.6C87.2,333.8,0,259,0,166.9
	S87.2,0,194.7,0s194.7,74.7,194.7,166.9c0,37.9-14.8,72.9-39.6,100.9C333.1,287.6,365.2,346.2,372.5,370.6z"/>
<path class="st1" d="M389.5,370.6c-72.6-13.6-157.2-75.8-204.7-74.8h-0.2c-2.6,0.1-5.2,0.1-7.9,0.1C79.1,296,0,229.7,0,148
	S79.1,0,176.8,0s176.8,66.3,176.8,148c0,28.6-9.7,55.3-26.4,77.9c0,0,0,0,0,0c0,0,0,0,0,0c0,0-0.1,0.1-0.2,0.2
	c-0.1,0.1-0.1,0.2-0.2,0.2c-0.1,0.1-0.2,0.3-0.4,0.5C320.5,235.3,284.8,295,389.5,370.6z"/>
<path class="st1" d="M327.7,225.9c-0.1,0.1-0.1,0.2-0.2,0.2C327.6,226,327.6,225.9,327.7,225.9z"/>
</svg>
