<svg xmlns="http://www.w3.org/2000/svg" xmlns:xlink="http://www.w3.org/1999/xlink" viewBox="0 0 273.968 165.6931"><defs><style>.a{fill:url(#a);}.b{fill:url(#b);}</style><radialGradient id="a" cx="224.5149" cy="-132.4573" r="281.5033" gradientUnits="userSpaceOnUse"><stop offset="0.2556" stop-color="#fff"/><stop offset="0.533" stop-color="#fdfdfd"/><stop offset="0.6329" stop-color="#f6f6f6"/><stop offset="0.7042" stop-color="#ebebeb"/><stop offset="0.7618" stop-color="#dadada"/><stop offset="0.8111" stop-color="#c4c4c4"/><stop offset="0.8548" stop-color="#a8a8a8"/><stop offset="0.8944" stop-color="#888"/><stop offset="0.9307" stop-color="#626262"/><stop offset="0.9645" stop-color="#373737"/><stop offset="0.9945" stop-color="#090909"/><stop offset="1"/></radialGradient><linearGradient id="b" x1="136.984" y1="-107.3069" x2="136.984" y2="205.7714" xlink:href="#a"/></defs><title>cloud-1</title><path class="a" d="M193.3047,60.5531a64.6071,64.6071,0,0,0-19.3939,16.5031,57.1985,57.1985,0,0,0-39.423-9.3076A77.5542,77.5542,0,0,0,74.9549,26.7951a65.6366,65.6366,0,0,1,118.35,33.7579Z"/><path class="b" d="M214.4151,165.6931H71.5317c-38.2232,0-70.1976-30.016-71.49-68.2173A70.665,70.665,0,0,1,70.6691,24.3631a68.5777,68.5777,0,0,1,8.3332.4974,70.658,70.658,0,0,1,54.2392,37.3118,52.1124,52.1124,0,0,1,35.9175,8.48,58.7008,58.7008,0,0,1,104.7487,39.0293C272.4987,141.1726,245.9376,165.6931,214.4151,165.6931Z"/></svg>