<svg xmlns="http://www.w3.org/2000/svg" xmlns:xlink="http://www.w3.org/1999/xlink" viewBox="0 0 330.99 173"><defs><style>.a{fill:url(#a);}.b{fill:url(#b);}</style><radialGradient id="a" cx="253.5257" cy="-29.3226" r="174.9575" gradientUnits="userSpaceOnUse"><stop offset="0.2556" stop-color="#fff"/><stop offset="0.533" stop-color="#fdfdfd"/><stop offset="0.6329" stop-color="#f6f6f6"/><stop offset="0.7042" stop-color="#ebebeb"/><stop offset="0.7618" stop-color="#dadada"/><stop offset="0.8111" stop-color="#c4c4c4"/><stop offset="0.8548" stop-color="#a8a8a8"/><stop offset="0.8944" stop-color="#888"/><stop offset="0.9307" stop-color="#626262"/><stop offset="0.9645" stop-color="#373737"/><stop offset="0.9945" stop-color="#090909"/><stop offset="1"/></radialGradient><linearGradient id="b" x1="165.495" y1="-100" x2="165.495" y2="213.0783" xlink:href="#a"/></defs><title>cloud-2</title><path class="a" d="M279.8009,60.8548c-1.1834-.0838-2.3772-.1152-3.5816-.1152A60.3848,60.3848,0,0,0,221.2918,96,44.1341,44.1341,0,0,0,192.43,91.4969a74.1264,74.1264,0,0,0-47.911-53.8907A72.62,72.62,0,0,1,279.8009,60.8548Z"/><path class="b" d="M281.8472,173H36.9707A33.1183,33.1183,0,0,1,9.6474,158.7269c-24.0315-34.994.46-72.3869,33.6826-72.3869a43.7214,43.7214,0,0,1,11.8,1.62,70.6667,70.6667,0,0,1,138.19-.92,42.1434,42.1434,0,0,1,27.56,4.3,57.6612,57.6612,0,0,1,52.45-33.67c1.15,0,2.29.03,3.42.11,42.5248,2.4734,72.6473,51.0411,41.243,96.4683A43.8875,43.8875,0,0,1,281.8472,173Z"/></svg>