<svg xmlns="http://www.w3.org/2000/svg" xmlns:xlink="http://www.w3.org/1999/xlink" viewBox="0 0 299.4857 192.6599"><defs><style>.a{fill:#997453;}.b{fill:#826e55;}.c,.d{fill:#eaeaea;}.c{opacity:0.22;}.d{opacity:0.2;}.e{fill:#a91917;}.e,.f{opacity:0.73;}.g{fill:#600f0f;}.h{fill:#b5b5b5;}.i{fill:#edc469;}.j{fill:#eda921;}.k{fill:url(#a);}.l{fill:#e5ba42;}.m{fill:#dda019;}.n{fill:#d1d1d1;}.o{fill:url(#b);}.p{fill:#b7b7b7;}.q{fill:#9e9e9e;}.r{fill:#f7f7f7;}.s{fill:#2fa7b5;}.t{fill:#fff;opacity:0.33;}</style><linearGradient id="a" x1="262.3843" y1="143.4573" x2="174.3159" y2="71.1443" gradientUnits="userSpaceOnUse"><stop offset="0" stop-color="#fff"/><stop offset="0.3284" stop-color="#ffbc00"/><stop offset="0.597" stop-color="#7f5500"/><stop offset="1"/></linearGradient><linearGradient id="b" x1="237.7946" y1="147.3459" x2="180.9739" y2="103.0133" gradientUnits="userSpaceOnUse"><stop offset="0" stop-color="#fff"/><stop offset="1"/></linearGradient></defs><title>Gaming_2</title><path class="a" d="M192.7187,55.5468c4.2189.0964,11.8126.2189,16.0521.2846,1.5627.0242,2.67,1.1109,2.2539,2.2061,0,0-4.9068,10.8395-5.5035,14.5132s.0142-.089,0,0l-.8468,5.2138a2.2573,2.2573,0,0,1-2.3809,1.5431l-5.1858.0043a2.1943,2.1943,0,0,1-2.3969-1.6569s-.04-2.02-.3719-5.3211-4.0448-14.701-4.0448-14.701C189.99,56.5322,191.1747,55.5115,192.7187,55.5468Z"/><circle class="b" cx="205.9535" cy="59.9079" r="0.8627"/><circle class="b" cx="194.0665" cy="58.5757" r="1.342"/><circle class="b" cx="198.1922" cy="63.3982" r="0.671"/><circle class="b" cx="197.1493" cy="77.3937" r="0.671"/><circle class="b" cx="197.1437" cy="70.5881" r="0.5751"/><circle class="b" cx="200.6946" cy="75.8571" r="0.8627"/><circle class="b" cx="200.2012" cy="58.5707" r="0.8627"/><circle class="b" cx="203.1813" cy="69.1453" r="0.4793"/><circle class="b" cx="205.0953" cy="65.4055" r="0.4793"/><path class="c" d="M200.2012,58.5707l11.3284-.0093c6.1-.005,6.3255,8.76.6613,9.3911a4.1691,4.1691,0,0,0-3.5537,3.4843c-.5025,3.0068.533,8.6267,6.3694,19.1222,17.4809,31.4358,25.5167,45.4138-14.7419,45.4468h0c-40.2586.033-32.2457-13.9582-14.8164-45.4226,5.8191-10.505,6.8454-16.1266,6.338-19.1326a4.1691,4.1691,0,0,0-3.5594-3.4785c-5.6652-.6215-5.4545-9.3872.6459-9.3922l11.3284-.0093Z"/><path class="d" d="M187.5134,93.8194c-14.9,27.1271-21.8916,39.1122,12.7488,39.0838h0c34.64-.0284,27.726-12.0558,12.6846-39.1046,0,0-7.6251-10.4331-7.5952-20.204-5.1381.0042-10.7586-5.1735-10.8937.0089s-1.5187,7.7667-4.5811,15.2157A49.7218,49.7218,0,0,1,187.5134,93.8194Z"/><path class="e" d="M198.6292,94.09c-3.03.9488-5.3348,1.9806-7.4078,1.6166-3.26-.5724-3.708-1.8873-3.708-1.8873-14.997,27.0735-21.8916,39.1122,12.7488,39.0838h0c34.64-.0284,27.726-12.0558,12.6846-39.1046,0,0-1.9824-1.5588-8.3082-.9785a28.4256,28.4256,0,0,0-6.0094,1.27"/><g class="f"><path class="g" d="M198.6315,94.0863c-3.0359.9573-5.3355,1.9828-7.4063,1.6164-3.2671-.5724-3.7168-1.8834-3.7168-1.8834a15.4872,15.4872,0,0,1,6.59-1.1211A18.7331,18.7331,0,0,1,198.6315,94.0863Z"/></g><circle class="h" cx="235.997" cy="121.7907" r="18.933"/><path class="i" d="M225.8358,137.7689a18.9346,18.9346,0,1,1,21.8323-30.887"/><path class="j" d="M247.6682,106.8819a18.9348,18.9348,0,0,1-21.8323,30.887"/><circle class="k" cx="235.997" cy="121.7907" r="16.514"/><circle class="h" cx="235.997" cy="121.7907" r="15.5189"/><path class="l" d="M227.7571,134.9438A15.52,15.52,0,1,1,245.63,109.6229"/><path class="m" d="M245.63,109.6229a15.52,15.52,0,0,1-17.8731,25.3209"/><circle class="h" cx="221.189" cy="134.3899" r="15.2354"/><path class="n" d="M213.0123,147.2475a15.2367,15.2367,0,1,1,17.5685-24.8548"/><path class="h" d="M230.5808,122.3927a15.2369,15.2369,0,0,1-17.5685,24.8548"/><circle class="o" cx="221.189" cy="134.3899" r="13.2889"/><circle class="h" cx="221.189" cy="134.3899" r="12.4881"/><path class="p" d="M214.5583,144.9742a12.4891,12.4891,0,1,1,14.3825-20.3758"/><path class="q" d="M228.9408,124.5984a12.4893,12.4893,0,0,1-14.3825,20.3758"/><path class="r" d="M214.1878,129.4262s-3.6667-4.4133-8.18,0c4.7549-4.4133,0-8.18,0-8.18s4.09,3.5851,8.18,0C209.7957,124.9524,214.1878,129.4262,214.1878,129.4262Z"/><path class="s" d="M206.846,21.8594A78.1608,78.1608,0,1,0,285.007,100.02,78.1609,78.1609,0,0,0,206.846,21.8594Zm0,147.93A69.7693,69.7693,0,1,1,276.6152,100.02,69.7694,69.7694,0,0,1,206.846,169.79Z"/><rect class="s" x="204.084" y="7.3805" width="5.524" height="30.6047"/><rect class="s" x="204.084" y="162.0552" width="5.524" height="30.6047" transform="translate(413.6921 354.7152) rotate(180)"/><rect class="s" x="126.7467" y="84.7179" width="5.524" height="30.6047" transform="translate(29.4884 229.5289) rotate(-90)"/><rect class="s" x="281.4214" y="84.7179" width="5.524" height="30.6047" transform="translate(384.2036 -184.1631) rotate(90)"/><path class="s" d="M22.3655,0A22.44,22.44,0,0,0,0,20.6432l12.0288,4.9733a6.3139,6.3139,0,0,1,3.5753-1.1046q.1783,0,.3542.01l5.35-7.7537c0-.0368-.0008-.0727-.0008-.1095a8.4639,8.4639,0,1,1,8.4641,8.4645c-.0645,0-.1283-.0016-.192-.0032L21.95,30.5636c.0041.1.0074.2.0074.3007A6.353,6.353,0,0,1,9.3755,32.116L.7729,28.5594A22.4426,22.4426,0,1,0,22.3655,0Z"/><path class="s" d="M14.0644,34.054,11.3078,32.915a4.7672,4.7672,0,1,0,2.6088-6.5183l2.8482,1.1773a3.51,3.51,0,1,1-2.7,6.48Z"/><path class="s" d="M35.4106,16.6585a5.64,5.64,0,1,0-5.64,5.6392A5.6463,5.6463,0,0,0,35.4106,16.6585Zm-9.8669-.01A4.2367,4.2367,0,1,1,29.78,20.885,4.2365,4.2365,0,0,1,25.5438,16.6487Z"/><path class="s" d="M68.7775,15.3557l-1.5037,2.6435a7.5252,7.5252,0,0,0-4.0984-1.2964c-1.5662,0-2.5352.6481-2.5352,1.81,0,1.4108,1.7217,1.7391,4.28,2.6576,2.75.9726,4.3307,2.1161,4.3307,4.6345,0,3.4461-2.71,5.3821-6.6053,5.3821a11.976,11.976,0,0,1-5.9493-1.5607l1.0969-2.9311a10.3847,10.3847,0,0,0,4.6661,1.2032c2.0556,0,3.0331-.7585,3.0331-1.8794,0-1.283-1.49-1.6689-3.8957-2.4651-2.7408-.9153-4.64-2.1161-4.64-4.9042,0-3.1436,2.5179-4.95,6.1407-4.95A9.6691,9.6691,0,0,1,68.7775,15.3557Z"/><path class="s" d="M80.532,17.0263v13.87h-3.54v-13.87h-5.14V13.9895H85.6564v3.0368Z"/><path class="s" d="M93.12,17.0172v3.81h6.7763v3.0366H93.12v3.9688h7.8618v3.0643H89.5809V13.9895h11.4013v3.0277Z"/><path class="s" d="M108.8851,27.6141l-1.1192,3.2826h-3.7114l6.3393-16.9072h3.5638l6.5186,16.9072h-3.8377l-1.1435-3.2826Zm3.27-9.5912-2.3084,6.7694h4.6657Z"/><path class="s" d="M138.6469,20.5245l-4.6265,9.88h-1.9977l-4.5522-9.7911V30.8967H124.08V13.9895h3.3829l5.6828,12.2047,5.48-12.2047h3.4126V30.8967h-3.39Z"/><path class="s" d="M148.8834,16.1224a2.3423,2.3423,0,1,1-2.3391-2.3524A2.2818,2.2818,0,0,1,148.8834,16.1224Zm-4.2906,0a1.9484,1.9484,0,1,0,3.8962,0,1.9482,1.9482,0,1,0-3.8962,0Zm1.9848-1.2019c.6059,0,.81.3205.81.6671a.6907.6907,0,0,1-.4177.6391l.5435,1.0184h-.4449l-.4583-.9027h-.4722v.9027h-.3706V14.92Zm-.4365,1.0815h.4137a.3841.3841,0,0,0,.4251-.379c0-.2128-.1134-.35-.4261-.35h-.4127Z"/><circle class="t" cx="188.3692" cy="107.1327" r="0.8609"/><circle class="t" cx="188.3692" cy="122.1073" r="0.8609"/><circle class="t" cx="207.2177" cy="104.0672" r="1.2095"/><circle class="t" cx="197.8466" cy="98.6519" r="1.3683"/><circle class="t" cx="201.082" cy="128.8089" r="1.25"/><circle class="t" cx="179.2761" cy="126.4476" r="1.1113"/></svg>