<svg xmlns="http://www.w3.org/2000/svg" viewBox="0 0 296.3163 153.5924"><defs><style>.a{fill:#c91619;}.b{fill:#a81917;}</style></defs><title>Hearts</title><path class="a" d="M296.3163,76.1133A30.0194,30.0194,0,0,0,242.181,58.2368a30.02,30.02,0,1,0-47.7589,36.3755h0l.0049.006q.4337.5532.8926,1.085l46.8616,49.3782,46.8524-49.3674q.4654-.5393.9054-1.1005l.001-.0013h0A29.8893,29.8893,0,0,0,296.3163,76.1133Z"/><path class="b" d="M242.181,145.0815l46.8524-49.3674q.4654-.5393.9054-1.1005l.001-.0013h0a30.02,30.02,0,0,0-23.6424-48.5178A29.96,29.96,0,0,0,242.181,58.2368m-20.5318,69.47,20.5318,17.3746"/><path class="a" d="M108.27,76.1133A30.0194,30.0194,0,0,0,54.1352,58.2368,30.02,30.02,0,1,0,6.3764,94.6124h0l.0049.006q.4337.5532.8926,1.085l46.8616,49.3782,46.8524-49.3674q.4654-.5393.9054-1.1005l.001-.0013h0A29.8893,29.8893,0,0,0,108.27,76.1133Z"/><path class="b" d="M54.1352,145.0815l46.8524-49.3674q.4654-.5393.9054-1.1005l.001-.0013h0A30.02,30.02,0,0,0,78.2517,46.0946,29.96,29.96,0,0,0,54.1352,58.2368m-20.5318,69.47,20.5318,17.3746"/><path class="a" d="M228.2522,43.2646A43.2656,43.2656,0,0,0,150.23,17.5,43.2658,43.2658,0,1,0,81.397,69.9264h0l.0071.0087q.625.7972,1.2865,1.5637L150.23,153.5924l67.5262-82.078q.6707-.7773,1.3049-1.5861l.0015-.0019h0A43.0781,43.0781,0,0,0,228.2522,43.2646Z"/><path class="b" d="M150.23,153.5924l67.5262-82.078q.6707-.7773,1.3049-1.5861l.0015-.0019h0A43.2661,43.2661,0,0,0,184.9876,0,43.1794,43.1794,0,0,0,150.23,17.5M120.638,117.6241,150.23,153.5924"/></svg>