<svg xmlns="http://www.w3.org/2000/svg" viewBox="0 0 473.64 433.0283"><defs><style>.a{fill:#ca1719;}.b{fill:#a91917;}</style></defs><title>Asset 1</title><path class="a" d="M473.64,131.32A131.323,131.323,0,0,0,236.82,53.1174,131.3236,131.3236,0,1,0,27.8942,212.2458h-.0015l.0216.0263q1.8971,2.42,3.9048,4.7463L236.82,433.0283,441.7807,217.0658q2.0359-2.3593,3.9609-4.8143l.0046-.0056h0A130.7539,130.7539,0,0,0,473.64,131.32Z"/><path class="b" d="M236.82,433.0283,441.7807,217.0658q2.0359-2.3593,3.9609-4.8143l.0046-.0056h0A131.3244,131.3244,0,0,0,342.32,0a131.0614,131.0614,0,0,0-105.5,53.1174"/></svg>